<?xml version="1.0" standalone="no"?><!DOCTYPE svg PUBLIC "-//W3C//DTD SVG 1.1//EN" "http://www.w3.org/Graphics/SVG/1.1/DTD/svg11.dtd"><svg t="1684679822840" class="icon" viewBox="0 0 1024 1024" version="1.1" xmlns="http://www.w3.org/2000/svg" p-id="12235" data-spm-anchor-id="a313x.7781069.0.i28" xmlns:xlink="http://www.w3.org/1999/xlink" width="48" height="48"><path d="M870.08751 151.616939c-56.964884-56.979218-132.734446-88.345945-213.30091-88.345945-80.566465 0-156.308381 31.366727-213.273265 88.345945-56.992529 56.964884-88.36028 132.720111-88.36028 213.30091 0 57.131777 15.790359 111.834898 45.289519 159.14352-2.98565 1.861424-52.263203 50.481642-52.263202 50.481642-18.12789-6.927608-40.08511-3.33889-54.179916 10.775369L77.759995 801.5732c-9.512919 9.470939-14.726543 22.075991-14.726543 35.499128 0 13.409826 5.213624 26.014878 14.698898 35.471483l71.442622 71.455933c9.457629 9.470939 22.075991 14.685587 35.471484 14.685587 13.367847 0 25.98621-5.213624 35.471483-14.698897l216.26813-216.26813c9.485274-9.485274 14.698898-22.075991 14.698897-35.484794 0-6.60406-1.276785-13.004368-3.693154-18.937783 0 0 48.438991-49.011343 50.358776-51.969348 47.282 29.456157 101.943142 45.225015 159.037036 45.225015 80.566465 0 156.335002-31.366727 213.30091-88.345945 56.992529-56.964884 88.36028-132.720111 88.36028-213.286576-0.001024-80.580799-31.368775-156.336026-88.361304-213.301934zM427.566321 575.473723l18.664405 18.651095-36.220967 36.248612-18.664406-18.664405 36.220968-36.235302z m-242.919865 323.680868l-62.067929-62.082263 206.89446-206.90777 62.067928 62.067928-206.894459 206.922105z m645.282224-361.107972c-46.260163 46.245828-107.745501 71.705761-173.14208 71.705761s-126.881917-25.459932-173.114435-71.705761c-46.260163-46.245828-71.720095-107.73219-71.720096-173.12877 0-65.40989 25.459932-126.896252 71.720096-173.14208 46.232518-46.245828 107.717856-71.705761 173.114435-71.705761s126.881917 25.459932 173.14208 71.705761c46.260163 46.245828 71.720095 107.73219 71.720095 173.14208 0 65.39658-25.459932 126.882941-71.720095 173.12877z" fill="#ff8383" p-id="12236" data-spm-anchor-id="a313x.7781069.0.i26" class=""></path></svg>