<?xml version="1.0" encoding="utf-8"?>
<svg version="1.1" xmlns:xlink="http://www.w3.org/1999/xlink" width="21px" height="12px" xmlns="http://www.w3.org/2000/svg">
  <g transform="matrix(1 0 0 1 -904 -239 )">
    <path d="M 10.62804878298876 11.999999989809783  C 10.756097565977516 11.999999989809783  10.62804878298876 11.999999989809783  10.62804878298876 11.999999989809783  C 9.603658541587272 11.999999989809783  8.707317083174544 11.60869563434103  7.939024385241997 10.826086946331518  L 0.6402439124428354 2.4782608797554344  C 0.12804878048780488 1.9565217391304337  0.25609756347656265 1.1739130511209237  0.7682926729230186 0.6521739104959231  C 1.2804878048780488 0.1304347698709233  2.04878048030202 0.26086955502717324  2.560975612257051 0.7826086956521738  L 9.98780486804497 9.130434785156249  C 10.115853651033728 9.260869570312497  10.371951217011244 9.391304355468748  10.62804878298876 9.391304355468748  C 10.884146348966274 9.391304355468748  11.140243914943788 9.260869570312497  11.396341458412728 8.999999999999998  L 18.439024387742954 0.6521739104959221  C 18.95121951969798 0.13043476987092145  19.71951219512195 0  20.231707327076986 0.5217391253396713  C 20.74390245903201 1.043478265964672  20.871951219512194 1.826086953974183  20.35975608755717 2.3478260945991836  L 13.317073180735521 10.695652184103261  C 12.676829288300306 11.608695657269024  11.780487807379002 12.000000012737774  10.62804878298876 11.999999989809783  Z " fill-rule="nonzero" fill="#f7c578" stroke="none" transform="matrix(1 0 0 1 904 239 )" />
  </g>
</svg>