<?xml version="1.0" encoding="utf-8"?>
<svg version="1.1" xmlns:xlink="http://www.w3.org/1999/xlink" width="59px" height="65px" xmlns="http://www.w3.org/2000/svg">
  <g transform="matrix(1 0 0 1 -243 -1971 )">
    <path d="M 58.8451404551239 53.9552720833562  C 58.8451404551239 52.6187457562815  57.7585624221712 51.5354177074752  56.4186979903534 51.5354177074752  L 56.2072823549825 51.5354177074752  C 57.9001934517183 37.7094632533452  53.3929009223821 29.3132754998964  50.1160378748218 25.1934659128302  C 49.8730605654533 23.9175110664406  49.3593507057637 22.7475167737298  48.6396176575168 21.7397844632198  L 50.6976291238128 19.6876290236125  C 52.2914143600034 18.0985370185898  52.7340708028542 15.7900202991117  52.0263914592496 13.8006504413111  L 56.0061758091083 9.8321904809176  C 56.9536604345439 8.88756005237456  56.9536604345439 7.35571837635449  56.0061758091083 6.41077164765121  L 50.287327361844 0.70851235892731  C 49.8323000115971 0.25477977906962  49.2151820541867 0  48.5717362682154 0  C 47.9282904822442 0  47.3111725248337 0.254937929149737  46.8563037759638 0.70851235892731  L 42.8795328522657 4.6739674677986  C 42.27637181602 4.45967410923911  41.6346706451943 4.34817830275613  40.9761577284202 4.34817830275613  C 39.4638935999421 4.34817830275613  38.042190857658 4.93523140015304  36.9727417734076 6.0014792403066  L 18.4438187175379 24.4778368002976  C 16.8501920827242 26.0669288053203  16.4076942412502 28.3754455247984  17.1153735848548 30.3644990824388  L 15.4232554950034 32.0518022872145  C 14.3538064107529 33.1182082774482  13.7650780998026 34.5358655956233  13.7650780998026 36.0438266095456  C 13.7650780998026 37.5513131732275  14.3538064107529 38.969444941643  15.4232554950034 40.0353764816363  L 16.5667714222532 41.1757967093651  C 17.6362205065037 42.2418863994385  19.0579232487877 42.8289394968354  20.570028775889 42.8289394968354  C 22.0821343029903 42.8289394968354  23.5038370452743 42.2418863994385  24.5734447309016 41.1757967093651  L 26.2623907932156 39.4916565061916  C 26.8652346267076 39.705791714671  27.5069357975332 39.8174456712341  28.1657659170611 39.8174456712341  C 29.6780300455392 39.8174456712341  31.0997327878233 39.2299181235968  32.1687060679431 38.1638284335234  L 36.3154976676484 34.0288364387659  C 36.6095446203698 34.2387015950821  36.9169140887485 34.4321191430661  37.2376060727844 34.6057679310353  C 38.2540822971595 38.614714311939  37.5646421118953 42.6508625066229  35.1816564243877 46.6199550673369  C 33.7553542421744 48.9960018710252  32.0749726542115 50.7198377443082  31.2009204662678 51  L 10.8065280156252 51  L 8.51457951844243 49  L 28.2047818557717 49  C 29.5446462875896 49.2914262206851  30.6310657191654 48.2080981718789  30.6310657191654 46.8720462950445  C 30.6310657191654 45.5361525682903  29.5446462875896 44.4526663694039  28.2047818557717 44  L 2.58114340826977 44  C 1.59575305376166 44.4526663694039  0.708378350160688 45.0468362204061  0.335189310379975 45.956357331163  C -0.0375239252701221 46.8658784419199  0.178173947276317 47.9101434209371  0.880936648197839 48.5982544195292  L 7.65289823789478 55.2294872788645  L 7.65289823789478 62.422627372858  C 7.65289823789478 63.7588373997725  8.73931766947059 64.8420072984986  10.0791821012885 64.8420072984986  L 56.4185393889765 64.8420072984986  C 57.7585624221713 64.8420072984986  58.8451404551239 63.7586792496924  58.8451404551239 62.422627372858  L 58.8451404551239 53.9552720833562  Z M 19.4529992785768 60  L 19.4529992785768 60.0026148468969  L 15.7475953107074 56  L 35.1169470626238 56  C 35.4909291092889 57.7292074452049  36.1603855210672 58.9635688205236  37.0534698742356 60  L 19.4529992785768 60  Z M 22.4469174697968 36.4532771669703  L 21.1417867395139 37.7543778760987  C 20.9356049495798 37.9599729802517  20.6950066608644 37.9909703959547  20.570028775889 37.9909703959547  C 20.4450508909136 37.9909703959547  20.2042940008213 37.9599729802517  19.9982708122641 37.7543778760987  L 18.8544376822605 36.6142739485301  C 18.6484144937032 36.408520694297  18.6174872252131 36.1689233229187  18.6174872252131 36.0443010597859  C 18.6174872252131 35.919362496493  18.6484144937032 35.6796069750345  18.8545962836373 35.4740118708815  L 20.1597270139202 34.1725948615929  L 22.4469174697968 36.4532771669703  Z M 41.4410183640332 18.0526734953557  C 36.5714802899204 18.0525153452756  32.6097764970252 22.0032624966959  32.6097764970252 26.8594188567901  C 32.6097764970252 28.0324180010231  32.8465683526957 29.1679355762682  33.2803431184417 30.2126750055258  L 28.7376824820629 34.742409600257  C 28.5316592935057 34.9478465543299  28.2910610047903 34.9785276698727  28.165924518438 34.9785276698727  C 28.0409466334625 34.9785276698727  27.8000311419934 34.9483210045703  27.5938493520593 34.742409600257  L 21.8753181075487 29.039992161453  C 21.5601771717033 28.7254316520989  21.5600185703264 28.2139742929982  21.8753181075487 27.8994137836441  L 40.4039239606646 9.42321437373322  C 40.6099471492219 9.21761926958021  40.8503868365604 9.18678000395725  40.9756819242896 9.18678000395725  C 41.1003426065113 9.18678000395725  41.3414166993573 9.21761926958021  41.5474398879145 9.42337252381334  L 42.9991182904274 10.8710783572108  C 43.1827786848457 11.0625981042333  43.367549288902 11.2441543962085  43.5443898241147 11.4174868840175  C 43.6332065951632 11.5043112780021  43.7234507786036 11.5933497731083  43.8143293675515 11.6839697690158  L 44.9848075288697 12.8511173602844  C 45.0804441591237 12.9464818585954  45.1735431673478 13.0412137565859  45.2656905673106 13.134047853615  C 45.4407864873777 13.3114922435071  45.624446881796 13.4970022874851  45.8174647574497 13.6814052809024  L 47.2658125310482 15.1256318125372  C 47.5811120682705 15.4398760217311  47.5811120682705 15.9518078310721  47.2658125310482 16.266052040266  L 44.8125664335862 18.7126337796869  C 43.7721414013034 18.2867356139299  42.6335421167366 18.0526734953557  41.4410183640332 18.0526734953557  Z M 48.8346973510698 53.8768296436178  C 48.8348559524467 56.4075472256613  46.7698660255683 58.4665031187136  44.2319267928565 58.4665031187136  C 41.6941461615215 58.4665031187136  39.6294734373968 56.407230925501  39.6294734373968 53.8768296436178  C 39.6294734373968 51.3464283617345  41.6941461615215 49.2874724686821  44.2319267928565 49.2874724686821  C 46.7698660255683 49.2874724686821  48.8346973510698 51.3462702116544  48.8346973510698 53.8768296436178  Z M 53.9924141269597 60.0026148468969  L 51.4105423128542 60.0026148468969  C 52.30426107153 58.9630943702832  52.9746690915696 57.7284166948043  53.3488097396116 56.3714890073944  L 53.9927313297134 56.3724379078751  L 53.9924141269597 60.0026148468969  Z " fill-rule="nonzero" fill="#f7c578" stroke="none" transform="matrix(1 0 0 1 243 1971 )" />
  </g>
</svg>