<?xml version="1.0" encoding="utf-8"?>
<svg version="1.1" xmlns:xlink="http://www.w3.org/1999/xlink" width="42px" height="13px" xmlns="http://www.w3.org/2000/svg">
  <g transform="matrix(1 0 0 1 -907 -1999 )">
    <path d="M 0.436386171151717 2.84864987597331  C 0.436386171151715 3.79552923461958  1.20554355786746 4.56597144569202  2.16937897879852 4.56597144569202  L 3.92625866180917 4.56597144569202  C 3.92625866180917 4.59184889400285  3.91192653659086 4.61537384701269  3.91192653659086 4.63419380942057  L 3.91192653659086 12.0469065028228  L 7.39941033971193 12.0469065028228  L 7.39941033971193 4.63419380942057  C 7.39941033971193 4.60949260876023  7.38627255826182 4.5847914080999  7.38627255826182 4.56597144569202  L 9.04282736474433 4.56597144569202  C 9.04282736474433 4.59184889400285  9.02968958329421 4.6153738470127  9.02968958329421 4.63419380942057  L 9.02968958329421 12.0469065028228  L 12.5159790426471 12.0469065028228  L 12.5159790426471 4.63419380942057  C 12.5159790426471 4.60949260876023  12.502841261197 4.5847914080999  12.502841261197 4.56597144569202  L 14.1593960676795 4.56597144569202  C 14.1593960676795 4.59184889400285  14.1462582862294 4.6153738470127  14.1462582862294 4.63419380942057  L 14.1462582862294 12.0469065028228  L 17.6337420893504 12.0469065028228  L 17.6337420893504 4.63419380942057  C 17.6337420893504 4.60949260876023  17.6194099641321 4.5847914080999  17.6194099641321 4.56597144569202  L 19.2759647706146 4.56597144569202  C 19.2759647706146 4.59184889400285  19.2616326453963 4.6153738470127  19.2616326453963 4.63419380942057  L 19.2616326453963 12.0469065028228  L 22.7491164485174 12.0469065028228  L 22.7491164485174 4.63419380942057  C 22.7491164485174 4.60949260876023  22.7347843232991 4.5847914080999  22.7347843232991 4.56597144569202  L 24.3913391297816 4.56597144569202  C 24.3913391297816 4.59184889400285  24.3770070045633 4.6153738470127  24.3770070045633 4.63419380942057  L 24.3770070045633 12.0469065028228  L 27.8644908076844 12.0469065028228  L 27.8644908076844 4.63419380942057  C 27.8644908076844 4.60949260876023  27.8513530262343 4.5847914080999  27.8513530262343 4.56597144569202  L 29.5079078327168 4.56597144569202  C 29.5079078327168 4.59184889400285  29.4935757074985 4.6153738470127  29.4935757074985 4.63419380942057  L 29.4935757074985 12.0469065028228  L 32.9810595106195 12.0469065028228  L 32.9810595106195 4.63419380942057  C 32.9810595106195 4.60949260876023  32.9667273854012 4.5847914080999  32.9667273854012 4.56597144569202  L 34.6232821918837 4.56597144569202  C 34.6232821918837 4.59184889400285  34.6101444104336 4.6153738470127  34.6101444104336 4.63419380942057  L 34.6101444104336 12.0469065028228  L 38.0976282135547 12.0469065028228  L 38.0976282135547 4.63419380942057  C 38.0976282135547 4.60949260876023  38.0832960883364 4.5847914080999  38.0832960883364 4.56597144569202  L 39.840175771347 4.56597144569202  C 40.8052055360463 4.56597144569202  41.5839176729076 3.80023422522155  41.5839176729076 2.84864987597331  C 41.5839176729076 1.89941802202605  40.8052055360463 1.1313283062546  39.840175771347 1.1313283062546  L 2.18012807271225 1.1313283062546  C 1.21868133931757 1.1313283062546  0.436386171151717 1.89941802202605  0.436386171151717 2.84864987597331  Z " fill-rule="nonzero" fill="#f7c578" stroke="none" transform="matrix(1 0 0 1 907 1999 )" />
  </g>
</svg>