<?xml version="1.0" encoding="utf-8"?>
<svg version="1.1" xmlns:xlink="http://www.w3.org/1999/xlink" width="37px" height="25px" xmlns="http://www.w3.org/2000/svg">
  <g transform="matrix(1 0 0 1 -909 -1973 )">
    <path d="M 0.464365654802183 23.5231218550781  C 0.464365654802183 24.2885445477885  1.08564915636902 24.9082288640231  1.85067128831747 25  L 35.1481407891174 25  C 35.9131629210659 24.9082288640231  36.5356343451978 24.2885445477885  36.5356343451978 23.5243067199275  C 36.5356343451978 22.7636234866146  35.9131629210659 22.1415694406812  35.1481407891174 22.1415694406812  L 35.0768654352092 22.1415694406812  C 34.4496423208166 14.5465857560466  28.6965333378564 8.41135556586909  21.2743931508783 7.16843233885167  L 21.2743931508783 5.18970804035873  L 18.8462794277375 5.18970804035873  L 18.8462794277375 0.345980536023916  C 18.8462794277375 0.157587024969797  18.6906615717045 0  18.4994060387174 0  C 18.3081505057303 0  18.1525326496973 0.157587024969797  18.1525326496973 0.345980536023916  L 18.1525326496973 5.18852317550934  L 15.7256068491217 5.18852317550934  L 15.7256068491217 7.16724747400228  C 8.30346666214355 8.4101707010197  2.55154560174851 14.5454008911972  1.92075871966057 22.1403845758318  L 1.85067128831747 22.1403845758318  C 1.08564915636902 22.1403845758318  0.464365654802183 22.7624386217652  0.464365654802183 23.5231218550781  Z " fill-rule="nonzero" fill="#f7c578" stroke="none" transform="matrix(1 0 0 1 909 1973 )" />
  </g>
</svg>