<?xml version="1.0" encoding="utf-8"?>
<svg version="1.1" xmlns:xlink="http://www.w3.org/1999/xlink" width="60px" height="43px" xmlns="http://www.w3.org/2000/svg">
  <g transform="matrix(1 0 0 1 -569 -1993 )">
    <path d="M 22.5657737200118 0.0559627149542408  C 14.9239295644969 4.94429540874003  7.6288238893479 15.0676992766775  3.60393799961051 24.3548515154972  C 1.52350711741517 29.141202303293  1.01359758746533 33.8867603286929  1 37.3677427198171  C 0.993201206267335 40.3728095496548  3.4339681562939 42.8067777059487  6.43903498613161 42  L 30.7719177553379 42  L 54.560897025931 42.8067777059487  C 57.5658958678314 42.8067777059487  60.0067308057953 40.3728095496548  59.9999320120627 37.3677427198171  C 59.9930652303927 33.8867603286929  59.4764248946475 29.141202303293  57.4027928061848 24.3548515154972  C 53.3711081227148 15.0676992766775  46.0759344596284 4.94429540874003  38.4341582920508 0.0559627149542408  L 30.7719177553379 0.0559627149542408  L 22.5657737200118 0.0559627149542408  Z M 34.9667055004546 26.2926437051812  C 34.9668414763292 25.3746705753969  34.7424812831513 24.6404008522691  34.3005596905281 24.1032961473886  C 33.491503236341 23.1106722624196  32.1044813269402 22.6891470509944  30.8535712680672 22.4035977142225  C 29.3034462970197 22.0501284280613  27.9096935818235 21.6965911539627  26.5090740849573 20.9147298747063  C 25.6116333122455 20.4116191384891  24.9045587640484 19.704544590292  24.4150456152966 18.813902611313  C 23.9323312602774 17.9300594260666  23.6875746859015 16.9102403661669  23.6875746859015 15.7953061819472  C 23.6875746859015 13.8031916303392  24.4014480278313 12.1714811344997  25.8155971242255 10.9341686630921  C 26.6518487533432 10.1997629640897  27.7940461004309 9.68985343413985  29.0858169096371 9.45869444722926  L 29.0858169096371 8.37088745000294  C 29.0858169096371 7.63661772687517  29.6841107581116 7.04512267213336  30.4115816875067 7.04512267213336  L 31.1322538231691 7.04512267213336  C 31.8665235462969 7.04512267213336  32.4580186010387 7.64341652060784  32.4580186010387 8.37088745000294  L 32.4580186010387 9.47229203469459  C 33.654674285925 9.70338303366786  34.722016914016 10.172567789159  35.5174757807377 10.8388495749602  C 36.3673249973208 11.5391253294246  36.9860832149306 12.4365661021363  37.3667476760225 13.497177924432  C 37.6454982190617 14.2790392036884  37.1355886891119 15.1288884202715  36.3061358537268 15.2513346953968  L 35.6057921113251 15.3533166013867  C 34.9735042941873 15.4484317257067  34.3548820524521 15.0744980704102  34.1509182404722 14.4694734161403  C 33.9809483971556 13.9730934857185  33.7565882039776 13.5651658617586  33.4778376609384 13.2524893379934  C 32.8455498438006 12.5386159960636  31.8461271650989 12.1374871658364  30.7379237866746 12.1374871658364  C 29.5617324709236 12.1374871658364  28.4466623108293 12.5998051396576  27.7600521317675 13.368136819386  C 27.1957522519564 14.0004246365238  26.9238005026498 14.7278955659189  26.9238005026498 15.5913423699673  C 26.9238005026498 16.4343248048804  27.1617582832931 17.1550649284801  27.6308070629096 17.7124980266213  C 28.6098333604133 18.8887573303096  30.2143486813221 19.2150994294775  31.7644736523696 19.5277759532427  C 32.6687812067513 19.7113433840247  33.607014741859 19.9017096085393  34.4160032081088 20.2552468826378  C 35.2794500121572 20.6359793316671  36.0001901357569 21.1118948929536  36.5508244401654 21.6625971852994  C 37.1015267325113 22.2132994776452  37.5366495314018 22.879513275509  37.835796455639 23.6410461615048  C 38.1281445861436 24.3957802537679  38.2845168419949 25.2251651012156  38.2845168419949 26.109008286462  C 38.2845168419949 28.0398657065387  37.6590278185897 29.6715762023782  36.4284461529775 30.9701458053171  C 35.4154258868105 32.0308256155501  34.0420695528122 32.7378321758099  32.4579506131014 33.0166507067865  L 32.4579506131014 33.8189083672409  C 32.4579506131014 34.5531780903686  31.8596567646269 35.1446731451105  31.1321858352318 35.1446731451105  L 30.4115136995694 35.1446731451105  C 29.6772439764416 35.1446731451105  29.0857489216998 34.546379296636  29.0857489216998 33.8189083672409  L 29.0857489216998 32.9826567381231  C 28.2155033239187 32.8194856885392  27.3791837068637 32.53386836383  26.6313163962706 32.1532039027381  C 25.7474732110242 31.6976847226495  24.9792095192331 30.9566162057891  24.3401908963 29.9503947333548  C 23.9117989032048 29.2773821417583  23.6058531852349 28.5022516682972  23.4154869607203 27.6320060705162  C 23.259114704869 26.8977363473884  23.7486278536208 26.1838630054586  24.4896963704813 26.054685924538  L 25.210436494081 25.93230763735  C 25.8971146610801 25.8099293501621  26.5565976531486 26.2382533553199  26.7265674964652 26.9113339348537  C 26.9305313084451 27.7067248136381  27.2024830577517 28.3254830312479  27.542422744385 28.7605378422011  C 28.3038876424434 29.7395641397048  29.5616644829863 30.324260400714  30.9078256420539 30.324260400714  C 31.1389846289645 30.324260400714  31.3633448221424 30.303864019516  31.5877050153203 30.2767368325227  C 32.5531337253587 30.1338941761994  33.4097817356744 29.6783749961108  34.0148743778816 28.9917648170491  C 34.6471621950194 28.2710926813866  34.9667055004546 27.3600543212096  34.9667055004546 26.2926437051812  Z " fill-rule="nonzero" fill="#f7c578" stroke="none" transform="matrix(1 0 0 1 569 1993 )" />
  </g>
</svg>