<?xml version="1.0" encoding="utf-8"?>
<svg version="1.1" xmlns:xlink="http://www.w3.org/1999/xlink" width="51px" height="24px" xmlns="http://www.w3.org/2000/svg">
  <g transform="matrix(1 0 0 1 -902 -2012 )">
    <path d="M 50.660830476816 22.2562580984395  C 50.660830476816 21.2995887401176  49.8911731322438 20.5137105406471  48.9373646438783 20.5137105406471  L 47 20.5137105406471  L 47 4.47128504629021  L 48.9373646438783 4.47128504629021  C 49.8911731322438 4.47128504629021  50.660830476816 3.69496159696531  50.660830476816 2.72754314472967  C 50.660830476816 1.76848509887139  49.8911731322438 0.983801243169137  48.9373646438783 1  L 2.06263535612171 1  C 1.11118777985608 0.983801243169137  0.339169523183973 1.76848509887139  0.339169523183973 2.72754314472967  C 0.339169523183973 3.69496159696531  1.11118777985608 4.47128504629021  2.06263535612171 4.47128504629021  L 4 4.47128504629021  L 4 20.5137105406471  L 2.06263535612171 20.5137105406471  C 1.11118777985608 20.5137105406471  0.339169523183973 21.2972000525812  0.339169523183973 22.2562580984395  C 0.339169523183973 23.2248708944433  1.11118777985608 24  2.06263535612171 24  L 48.9373646438783 24  C 49.8911731322438 24  50.660830476816 23.2248708944433  50.660830476816 22.2562580984395  Z M 42 4.47128504629021  L 42 20.5137105406471  L 39 20.5137105406471  L 39 4.47128504629021  L 42 4.47128504629021  Z M 24 20.5137105406471  L 24 4.47128504629021  L 27 4.47128504629021  L 27 20.5137105406471  L 24 20.5137105406471  Z M 20 4.47128504629021  L 20 20.5137105406471  L 17 20.5137105406471  L 17 4.47128504629021  L 20 4.47128504629021  Z M 31 20.5137105406471  L 31 4.47128504629021  L 34 4.47128504629021  L 34 20.5137105406471  L 31 20.5137105406471  Z M 9 20.5137105406471  L 9 4.47128504629021  L 12 4.47128504629021  L 12 20.5137105406471  L 9 20.5137105406471  Z " fill-rule="nonzero" fill="#f7c578" stroke="none" transform="matrix(1 0 0 1 902 2012 )" />
  </g>
</svg>