<?xml version="1.0" encoding="utf-8"?>
<svg version="1.1" xmlns:xlink="http://www.w3.org/1999/xlink" width="18px" height="14px" xmlns="http://www.w3.org/2000/svg">
  <g transform="matrix(1 0 0 1 -637 -2347 )">
    <path d="M 16.9955357142857 5.37926136363636  C 17.3772321428571 5.12073863636364  17.7120535714286 4.83238636363636  18 4.51420454545455  L 18 12.4090909090909  C 18 12.8465909090909  17.8426339285714 13.2211174242424  17.5279017857143 13.5326704545455  C 17.2131696428571 13.8442234848485  16.8348214285714 14  16.3928571428571 14  L 1.60714285714286 14  C 1.16517857142857 14  0.786830357142857 13.8442234848485  0.472098214285714 13.5326704545455  C 0.157366071428572 13.2211174242424  0 12.8465909090909  0 12.4090909090909  L 0 4.51420454545455  C 0.294642857142857 4.83901515151515  0.6328125 5.12736742424242  1.01450892857143 5.37926136363636  C 3.43861607142857 7.00994318181818  5.10267857142857 8.15340909090909  6.00669642857143 8.80965909090909  C 6.38839285714286 9.08806818181818  6.69810267857143 9.30516098484848  6.93582589285714 9.4609375  C 7.17354910714286 9.61671401515151  7.48995535714286 9.77580492424242  7.88504464285714 9.93821022727273  C 8.28013392857143 10.100615530303  8.6484375 10.1818181818182  8.98995535714286 10.1818181818182  L 9 10.1818181818182  L 9.01004464285714 10.1818181818182  C 9.3515625 10.1818181818182  9.71986607142857 10.100615530303  10.1149553571429 9.93821022727273  C 10.5100446428571 9.77580492424242  10.8264508928571 9.61671401515151  11.0641741071429 9.4609375  C 11.3018973214286 9.30516098484848  11.6116071428571 9.08806818181818  11.9933035714286 8.80965909090909  C 13.1316964285714 7.99431818181818  14.7991071428571 6.85085227272727  16.9955357142857 5.37926136363636  Z M 17.5228794642857 0.467329545454545  C 17.8409598214286 0.778882575757575  18 1.15340909090909  18 1.59090909090909  C 18 2.11458333333333  17.8359375 2.61505681818182  17.5078125 3.09232954545455  C 17.1796875 3.56960227272727  16.7712053571429 3.97727272727273  16.2823660714286 4.31534090909091  C 13.7645089285714 6.04545454545455  12.1975446428571 7.12263257575758  11.5814732142857 7.546875  C 11.5145089285714 7.59327651515151  11.3722098214286 7.69436553030303  11.1545758928571 7.85014204545455  C 10.9369419642857 8.00591856060606  10.7561383928571 8.13186553030303  10.6121651785714 8.22798295454545  C 10.4681919642857 8.32410037878788  10.2940848214286 8.43181818181818  10.08984375 8.55113636363636  C 9.88560267857143 8.67045454545455  9.69308035714286 8.75994318181818  9.51227678571428 8.81960227272727  C 9.33147321428572 8.87926136363636  9.1640625 8.90909090909091  9.01004464285714 8.90909090909091  L 9 8.90909090909091  L 8.98995535714286 8.90909090909091  C 8.8359375 8.90909090909091  8.66852678571429 8.87926136363636  8.48772321428571 8.81960227272727  C 8.30691964285714 8.75994318181818  8.11439732142857 8.67045454545455  7.91015625 8.55113636363636  C 7.70591517857143 8.43181818181818  7.53180803571429 8.32410037878788  7.38783482142857 8.22798295454545  C 7.24386160714286 8.13186553030303  7.06305803571429 8.00591856060606  6.84542410714286 7.85014204545455  C 6.62779017857143 7.69436553030303  6.48549107142857 7.59327651515151  6.41852678571429 7.546875  C 5.80915178571429 7.12263257575758  4.93191964285714 6.51775568181818  3.78683035714286 5.73224431818182  C 2.64174107142857 4.94673295454545  1.95535714285714 4.47443181818182  1.72767857142857 4.31534090909091  C 1.3125 4.03693181818182  0.920758928571429 3.65411931818182  0.552455357142857 3.16690340909091  C 0.184151785714286 2.6796875  0 2.22727272727273  0 1.80965909090909  C 0 1.29261363636364  0.138950892857143 0.861742424242422  0.416852678571429 0.517045454545455  C 0.694754464285714 0.172348484848484  1.09151785714286 0  1.60714285714286 0  L 16.3928571428571 0  C 16.828125 0  17.2047991071429 0.155776515151513  17.5228794642857 0.467329545454545  Z " fill-rule="nonzero" fill="#7f7f7f" stroke="none" transform="matrix(1 0 0 1 637 2347 )" />
  </g>
</svg>