<?xml version="1.0" standalone="no"?><!DOCTYPE svg PUBLIC "-//W3C//DTD SVG 1.1//EN" "http://www.w3.org/Graphics/SVG/1.1/DTD/svg11.dtd"><svg t="1691913603197" class="icon" viewBox="0 0 1024 1024" version="1.1" xmlns="http://www.w3.org/2000/svg" p-id="6436" width="48" height="48" xmlns:xlink="http://www.w3.org/1999/xlink"><path d="M600.436364 507.345455c0-13.963636-4.654545-23.272727-13.963637-32.581819L125.672727 13.963636C107.054545-4.654545 79.127273-4.654545 60.509091 13.963636c-18.618182 18.618182-18.618182 46.545455 0 65.163637l428.218182 428.218182-428.218182 428.218181c-18.618182 18.618182-18.618182 46.545455 0 65.163637s46.545455 18.618182 65.163636 0l460.8-460.8c9.309091-9.309091 13.963636-18.618182 13.963637-32.581818z" fill="#EF9C19" p-id="6437"></path><path d="M958.836364 474.763636L498.036364 13.963636c-18.618182-18.618182-46.545455-18.618182-65.163637 0-18.618182 18.618182-18.618182 46.545455 0 65.163637l428.218182 428.218182-428.218182 428.218181c-18.618182 18.618182-18.618182 46.545455 0 65.163637s46.545455 18.618182 65.163637 0l460.8-460.8c9.309091-9.309091 13.963636-23.272727 13.963636-32.581818s-4.654545-23.272727-13.963636-32.581819z" fill="#EF9C19" p-id="6438"></path></svg>