<?xml version="1.0" standalone="no"?><!DOCTYPE svg PUBLIC "-//W3C//DTD SVG 1.1//EN" "http://www.w3.org/Graphics/SVG/1.1/DTD/svg11.dtd"><svg t="1690651625408" class="icon" viewBox="0 0 1024 1024" version="1.1" xmlns="http://www.w3.org/2000/svg" p-id="11669" xmlns:xlink="http://www.w3.org/1999/xlink" width="200" height="200"><path d="M620.45184 809.55904a36.74624 36.74624 0 0 0-9.02144 1.152L399.18592 865.4336a31.52384 31.52384 0 0 0-23.99744 35.67616c1.93024 15.2576 13.81888 30.7968 32.66048 30.7968a36.16256 36.16256 0 0 0 9.09824-1.21856l212.1728-54.65088a31.51872 31.51872 0 0 0 23.99232-35.67104c-1.93536-15.32928-13.75232-30.80704-32.66048-30.80704z m-50.71872 114.47296a31.3856 31.3856 0 0 0-17.97632 6.08256c-14.11072 9.67168-27.648 15.04768-40.18688 15.76448h-1.65376a55.57248 55.57248 0 0 1-24.35072-7.16288c-0.7168-0.3584-3.51232-2.2272-5.376-3.43552-5.15584-3.44064-6.58432-4.37248-8.30976-4.59264a34.28864 34.28864 0 0 0-15.74912-3.86048 37.9648 37.9648 0 0 0-35.10272 24.49408c-4.08064 11.81696-0.21504 23.7824 10.3168 32.15872 23.7824 18.69312 51.57376 28.65664 80.2304 28.65664 26.2144 0 52.21376-8.38656 75.14112-24.21248a33.96608 33.96608 0 0 0 13.32224-39.18336c-4.58752-14.75584-16.75776-24.64256-30.30016-24.64256v-0.06656h-0.00512z m181.58592-597.4016a252.288 252.288 0 0 0-100.57216-102.21568 277.0944 277.0944 0 0 0-133.94432-33.81248c-40.5504 0-81.3056 8.59648-117.97504 24.85248a270.53568 270.53568 0 0 0-98.85696 74.35264c-50.00192 59.95008-71.13216 146.76992-56.37632 232.0896 14.11584 82.01216 59.02336 150.84544 123.20768 188.88704a33.21344 33.21344 0 0 0 17.04448 4.86912 34.37056 34.37056 0 0 0 32.23552-26.35776 31.73376 31.73376 0 0 0-15.11936-36.8896c-85.8112-50.85696-110.2336-173.34272-83.58912-257.72032 25.856-81.80736 105.01632-136.82176 196.98688-136.82176 38.75328 0 76.49792 10.03008 109.10208 29.01504 44.11904 25.64096 75.63264 68.40832 88.81152 120.41728a215.37792 215.37792 0 0 1-23.6288 163.95776c-11.67872 19.11808-26.79296 36.8128-41.40544 53.86752-9.38496 10.89024-19.1232 22.20032-27.93472 33.88416-15.04256 20.04992-19.62496 41.53856-24.1408 62.23872l-2.44224 11.10528-193.54624 51.50208a31.72864 31.72864 0 0 0-23.92576 36.03456c2.01216 15.104 13.75744 30.5152 32.45056 30.5152a36.1984 36.1984 0 0 0 9.30816-1.29536l150.99904-40.18176c5.59104-1.50528 11.10016-2.87232 16.32768-4.16256 41.33376-10.1632 73.92256-18.26304 77.7216-77.93664 1.36704-21.05344 19.41504-40.832 35.38432-58.0864 4.08576-4.52096 7.95648-8.66816 11.46368-12.9024 19.2-22.42048 43.04896-52.93056 58.15808-88.96 31.9488-76.07296 26.2912-161.38752-15.75424-240.1792v-0.06656zM179.712 470.82496c0-18.62144-15.04256-33.81248-33.664-33.81248H80.42496a33.78176 33.78176 0 0 0 0 67.55328h65.47456c18.62144 0 33.664-15.11424 33.664-33.7408h0.14848z m763.86816-33.81248H878.1824a33.78176 33.78176 0 0 0 0 67.55328h65.39776a33.77664 33.77664 0 0 0 0-67.55328zM230.56896 235.52a33.8176 33.8176 0 1 0 47.70304-47.70816l-46.27968-46.4128a33.79712 33.79712 0 0 0-47.69792 3.21024 33.80224 33.80224 0 0 0 0 44.4928L230.56896 235.52z m565.44768 470.60992a33.80736 33.80736 0 1 0-47.70304 47.70304l46.27456 46.34624a33.81248 33.81248 0 0 0 47.70304-47.70304l-46.27456-46.34624z m-282.7264-562.80064c18.62656 0 33.66912-15.11424 33.66912-33.73568V44.04736a33.7408 33.7408 0 0 0-67.4048 0v65.54624c0 18.62656 15.04256 33.73568 33.664 33.73568h0.07168zM278.27712 706.12992a33.67424 33.67424 0 0 0-47.616-0.09728l-0.09216 0.09728-46.27456 46.34624a33.73056 33.73056 0 0 0 47.69792 47.70304l46.27968-46.26944a33.8176 33.8176 0 0 0 0.00512-47.77984zM748.30848 235.52a33.66912 33.66912 0 0 0 47.616 0.09728l0.09216-0.09728 46.27456-46.34624a33.73056 33.73056 0 1 0-47.70304-47.70304l-46.27456 46.27456a33.81248 33.81248 0 0 0-0.00512 47.77472z" p-id="11670" fill="#ffffff"></path></svg>