<?xml version="1.0" standalone="no"?><!DOCTYPE svg PUBLIC "-//W3C//DTD SVG 1.1//EN" "http://www.w3.org/Graphics/SVG/1.1/DTD/svg11.dtd"><svg t="1692251323341" class="icon" viewBox="0 0 1024 1024" version="1.1" xmlns="http://www.w3.org/2000/svg" p-id="5624" xmlns:xlink="http://www.w3.org/1999/xlink" width="48" height="48"><path d="M600.435914 507.345505c0-13.962986-4.653995-23.271977-13.962987-32.580969l-460.79955-460.79955c-18.617982-18.618982-46.545955-18.618982-65.163936 0-18.617982 18.617982-18.617982 46.544955 0 65.162937l428.217582 428.217582L60.510441 935.564086c-18.617982 18.617982-18.617982 46.544955 0 65.162937s46.545955 18.617982 65.163936 0l460.79955-460.79955c9.308991-9.308991 13.962986-18.617982 13.962987-32.581968z" p-id="5625" fill="#aaaaaa"></path><path d="M958.835564 474.764536l-460.79955-460.79955c-18.617982-18.618982-46.544955-18.618982-65.162937 0-18.617982 18.617982-18.617982 46.544955 0 65.162937L861.089659 507.345505 432.873077 935.564086c-18.617982 18.617982-18.617982 46.544955 0 65.162937s46.544955 18.617982 65.162937 0l460.79955-460.79955c9.309991-9.308991 13.963986-23.271977 13.963986-32.581968s-4.654995-23.271977-13.963986-32.580969z" p-id="5626" fill="#aaaaaa"></path></svg>