<?xml version="1.0" encoding="utf-8"?>
<svg version="1.1" xmlns:xlink="http://www.w3.org/1999/xlink" width="14px" height="14px" xmlns="http://www.w3.org/2000/svg">
  <g transform="matrix(1 0 0 1 -296 -8 )">
    <path d="M 13.583490139160158 6.899862880859374  C 13.631495100097656 10.535630341796878  10.723374306640626 13.523182285156249  7.087991589355469 13.571589455566407  C 3.452241628417969 13.619979160156248  0.4652493090820312 10.711456140136722  0.41649236083984376 7.076842893066406  C 0.36824257080078127 3.4411104150390615  3.276013603515625 0.4535409887695312  6.911746081542969 0.40511631835937423  C 10.547531025390622 0.3567091308593743  13.534680725097656 3.2652321679687493  13.583490139160158 6.899862880859374  Z M 6.223482736816408 10.087076955566406  C 6.223482736816408 10.51443471435547  6.570622375488281 10.861574353027342  6.998347377929687 10.861574353027342  C 7.426072380371094 10.861574353027342  7.772494997558593 10.51443471435547  7.772494997558593 10.087076955566406  C 7.772494997558593 9.65901967529297  7.426072380371094 9.312579558105469  6.998347377929687 9.312579558105469  C 6.570622375488281 9.312579558105469  6.223482736816408 9.659037158203127  6.223482736816408 10.087076955566406  Z M 9.709079501953127 5.052870173339845  C 9.709079501953127 3.55529051513672  8.49555975830078 2.729360498046875  6.998347377929687 2.729360498046875  C 5.557149506835937 2.729360498046875  4.390113266601563 3.5016019165039065  4.304071594238282 4.894025356445313  C 4.293281408691406 4.945457993164062  4.2875977709960935 4.998394587402344  4.2875977709960935 5.052852673339843  C 4.2875977709960935 5.480192932128907  4.634370166015625 5.827350070800782  5.062095168457032 5.827350070800782  C 5.489820170898438 5.827350070800782  5.836242788085938 5.48019294921875  5.836242788085938 5.052852673339843  C 5.836242788085938 4.4110902807617185  6.356602485351564 3.8911153271484378  6.998347377929688 3.8911153271484378  C 7.639725026855469 3.8911153271484378  8.159717463378907 4.41109028076172  8.159717463378907 5.052852673339843  C 8.196390097656252 5.863655444335938  7.389049968261719 6.226324555664064  6.998347377929688 6.601847451171876  C 6.088089526367189 7.361969589843749  6.223482736816408 7.765141237792968  6.223482736816408 7.763619763183594  C 6.223482736816408 8.190942539062501  6.570622375488283 8.538117160644532  6.998347377929688 8.538117160644532  C 7.423064414062503 8.538117160644532  7.7671961035156265 8.19545447998047  7.771725527343751 7.771909157714844  C 8.218722456054687 7.160786000976562  8.927429458007811 6.620769633789063  8.934599604492188 6.601864951171876  C 9.672791611328128 5.984673413085938  9.709079501953127 5.052870173339845  9.709079501953127 5.052870173339845  Z " fill-rule="nonzero" fill="#ffffff" stroke="none" transform="matrix(1 0 0 1 296 8 )" />
  </g>
</svg>