<?xml version="1.0" encoding="utf-8"?>
<svg version="1.1" xmlns:xlink="http://www.w3.org/1999/xlink" width="24px" height="18px" xmlns="http://www.w3.org/2000/svg">
  <g transform="matrix(1 0 0 1 -211 -90 )">
    <path d="M 11.56640625 13.001953125  C 11.85546875 12.669921875  12 12.25390625  12 11.75390625  C 12 11.25390625  11.96484375 10.794921875  11.89453125 10.376953125  C 11.82421875 9.958984375  11.708984375 9.556640625  11.548828125 9.169921875  C 11.388671875 8.783203125  11.15234375 8.478515625  10.83984375 8.255859375  C 10.52734375 8.033203125  10.1484375 7.921875  9.703125 7.921875  C 9.65625 7.953125  9.5390625 8.0234375  9.3515625 8.1328125  C 9.1640625 8.2421875  9.017578125 8.326171875  8.912109375 8.384765625  C 8.806640625 8.443359375  8.66796875 8.51171875  8.49609375 8.58984375  C 8.32421875 8.66796875  8.15625 8.724609375  7.9921875 8.759765625  C 7.828125 8.794921875  7.6640625 8.8125  7.5 8.8125  C 7.3359375 8.8125  7.171875 8.794921875  7.0078125 8.759765625  C 6.84375 8.724609375  6.67578125 8.66796875  6.50390625 8.58984375  C 6.33203125 8.51171875  6.193359375 8.443359375  6.087890625 8.384765625  C 5.982421875 8.326171875  5.8359375 8.2421875  5.6484375 8.1328125  C 5.4609375 8.0234375  5.34375 7.953125  5.296875 7.921875  C 4.8515625 7.921875  4.47265625 8.033203125  4.16015625 8.255859375  C 3.84765625 8.478515625  3.611328125 8.783203125  3.451171875 9.169921875  C 3.291015625 9.556640625  3.17578125 9.958984375  3.10546875 10.376953125  C 3.03515625 10.794921875  3 11.25390625  3 11.75390625  C 3 12.25390625  3.14453125 12.669921875  3.43359375 13.001953125  C 3.72265625 13.333984375  4.078125 13.5  4.5 13.5  L 10.5 13.5  C 10.921875 13.5  11.27734375 13.333984375  11.56640625 13.001953125  Z M 9.380859375 7.541015625  C 9.900390625 7.021484375  10.16015625 6.39453125  10.16015625 5.66015625  C 10.16015625 4.92578125  9.900390625 4.298828125  9.380859375 3.779296875  C 8.861328125 3.259765625  8.234375 3  7.5 3  C 6.765625 3  6.138671875 3.259765625  5.619140625 3.779296875  C 5.099609375 4.298828125  4.83984375 4.92578125  4.83984375 5.66015625  C 4.83984375 6.39453125  5.099609375 7.021484375  5.619140625 7.541015625  C 6.138671875 8.060546875  6.765625 8.3203125  7.5 8.3203125  C 8.234375 8.3203125  8.861328125 8.060546875  9.380859375 7.541015625  Z M 20.89453125 11.89453125  C 20.96484375 11.82421875  21 11.734375  21 11.625  L 21 10.875  C 21 10.765625  20.96484375 10.67578125  20.89453125 10.60546875  C 20.82421875 10.53515625  20.734375 10.5  20.625 10.5  L 13.875 10.5  C 13.765625 10.5  13.67578125 10.53515625  13.60546875 10.60546875  C 13.53515625 10.67578125  13.5 10.765625  13.5 10.875  L 13.5 11.625  C 13.5 11.734375  13.53515625 11.82421875  13.60546875 11.89453125  C 13.67578125 11.96484375  13.765625 12  13.875 12  L 20.625 12  C 20.734375 12  20.82421875 11.96484375  20.89453125 11.89453125  Z M 20.876953125 8.876953125  C 20.958984375 8.794921875  21 8.6953125  21 8.578125  L 21 7.921875  C 21 7.8046875  20.958984375 7.705078125  20.876953125 7.623046875  C 20.794921875 7.541015625  20.6953125 7.5  20.578125 7.5  L 13.921875 7.5  C 13.8046875 7.5  13.705078125 7.541015625  13.623046875 7.623046875  C 13.541015625 7.705078125  13.5 7.8046875  13.5 7.921875  L 13.5 8.578125  C 13.5 8.6953125  13.541015625 8.794921875  13.623046875 8.876953125  C 13.705078125 8.958984375  13.8046875 9  13.921875 9  L 20.578125 9  C 20.6953125 9  20.794921875 8.958984375  20.876953125 8.876953125  Z M 20.89453125 5.89453125  C 20.96484375 5.82421875  21 5.734375  21 5.625  L 21 4.875  C 21 4.765625  20.96484375 4.67578125  20.89453125 4.60546875  C 20.82421875 4.53515625  20.734375 4.5  20.625 4.5  L 13.875 4.5  C 13.765625 4.5  13.67578125 4.53515625  13.60546875 4.60546875  C 13.53515625 4.67578125  13.5 4.765625  13.5 4.875  L 13.5 5.625  C 13.5 5.734375  13.53515625 5.82421875  13.60546875 5.89453125  C 13.67578125 5.96484375  13.765625 6  13.875 6  L 20.625 6  C 20.734375 6  20.82421875 5.96484375  20.89453125 5.89453125  Z M 23.44921875 0.550781250000001  C 23.81640625 0.917968749999999  24 1.359375  24 1.875  L 24 16.125  C 24 16.640625  23.81640625 17.08203125  23.44921875 17.44921875  C 23.08203125 17.81640625  22.640625 18  22.125 18  L 18 18  L 18 16.875  C 18 16.765625  17.96484375 16.67578125  17.89453125 16.60546875  C 17.82421875 16.53515625  17.734375 16.5  17.625 16.5  L 16.875 16.5  C 16.765625 16.5  16.67578125 16.53515625  16.60546875 16.60546875  C 16.53515625 16.67578125  16.5 16.765625  16.5 16.875  L 16.5 18  L 7.5 18  L 7.5 16.875  C 7.5 16.765625  7.46484375 16.67578125  7.39453125 16.60546875  C 7.32421875 16.53515625  7.234375 16.5  7.125 16.5  L 6.375 16.5  C 6.265625 16.5  6.17578125 16.53515625  6.10546875 16.60546875  C 6.03515625 16.67578125  6 16.765625  6 16.875  L 6 18  L 1.875 18  C 1.359375 18  0.91796875 17.81640625  0.55078125 17.44921875  C 0.18359375 17.08203125  0 16.640625  0 16.125  L 0 1.875  C 0 1.359375  0.18359375 0.917968749999999  0.55078125 0.550781250000001  C 0.91796875 0.183593749999998  1.359375 0  1.875 0  L 22.125 0  C 22.640625 0  23.08203125 0.183593749999998  23.44921875 0.550781250000001  Z " fill-rule="nonzero" fill="#555555" stroke="none" transform="matrix(1 0 0 1 211 90 )" />
  </g>
</svg>