<?xml version="1.0" encoding="utf-8"?>
<svg version="1.1" xmlns:xlink="http://www.w3.org/1999/xlink" width="22px" height="16px" xmlns="http://www.w3.org/2000/svg">
  <g transform="matrix(1 0 0 1 -28 -16 )">
    <path d="M 10.6025390625 11.557291666666668  C 10.867513020833334 11.262152777777775  11 10.89236111111111  11 10.447916666666668  C 11 10.003472222222221  10.9677734375 9.59548611111111  10.9033203125 9.223958333333332  C 10.8388671875 8.852430555555554  10.733235677083334 8.494791666666668  10.58642578125 8.151041666666668  C 10.439615885416668 7.807291666666666  10.222981770833334 7.536458333333334  9.9365234375 7.338541666666666  C 9.650065104166668 7.140625  9.302734375000002 7.041666666666666  8.89453125 7.041666666666666  C 8.851562500000002 7.069444444444445  8.744140625000002 7.131944444444445  8.572265625 7.229166666666666  C 8.400390625000002 7.3263888888888875  8.266113281250002 7.401041666666666  8.16943359375 7.453125  C 8.07275390625 7.505208333333334  7.945638020833334 7.565972222222221  7.7880859375 7.635416666666666  C 7.630533854166667 7.704861111111111  7.4765625 7.755208333333334  7.326171875 7.786458333333334  C 7.17578125 7.817708333333334  7.025390625 7.833333333333334  6.875 7.833333333333334  C 6.724609375 7.833333333333334  6.57421875 7.817708333333334  6.423828125 7.786458333333334  C 6.2734375 7.755208333333334  6.119466145833334 7.704861111111111  5.9619140625 7.635416666666666  C 5.804361979166667 7.565972222222221  5.67724609375 7.505208333333334  5.58056640625 7.453125  C 5.48388671875 7.401041666666666  5.349609375 7.3263888888888875  5.177734375 7.229166666666666  C 5.005859375 7.131944444444445  4.8984375 7.069444444444445  4.85546875 7.041666666666666  C 4.447265625 7.041666666666666  4.099934895833334 7.140625  3.8134765625 7.338541666666666  C 3.527018229166667 7.536458333333334  3.3103841145833335 7.807291666666666  3.16357421875 8.151041666666668  C 3.016764322916667 8.494791666666668  2.9111328125 8.852430555555554  2.8466796875 9.223958333333332  C 2.7822265625 9.59548611111111  2.75 10.003472222222221  2.75 10.447916666666668  C 2.75 10.89236111111111  2.882486979166667 11.262152777777775  3.1474609375 11.557291666666668  C 3.4124348958333335 11.852430555555554  3.73828125 12  4.125 12  L 9.625 12  C 10.01171875 12  10.337565104166668 11.852430555555554  10.6025390625 11.557291666666668  Z M 8.59912109375 6.703125  C 9.075358072916668 6.241319444444443  9.313476562500002 5.684027777777777  9.3134765625 5.03125  C 9.313476562500002 4.378472222222221  9.075358072916668 3.8211805555555554  8.59912109375 3.359375  C 8.122884114583334 2.897569444444443  7.548177083333334 2.666666666666666  6.875 2.666666666666666  C 6.201822916666667 2.666666666666666  5.627115885416667 2.897569444444443  5.15087890625 3.359375  C 4.674641927083334 3.8211805555555554  4.4365234375 4.378472222222221  4.4365234375 5.03125  C 4.4365234375 5.684027777777777  4.674641927083334 6.241319444444443  5.15087890625 6.703125  C 5.627115885416667 7.164930555555555  6.201822916666667 7.395833333333334  6.875 7.395833333333334  C 7.548177083333334 7.395833333333334  8.122884114583334 7.164930555555555  8.59912109375 6.703125  Z M 19.1533203125 10.572916666666668  C 19.2177734375 10.510416666666668  19.25 10.430555555555554  19.25 10.333333333333332  L 19.25 9.666666666666668  C 19.25 9.569444444444443  19.2177734375 9.489583333333332  19.1533203125 9.427083333333332  C 19.0888671875 9.364583333333332  19.006510416666668 9.333333333333332  18.90625 9.333333333333332  L 12.71875 9.333333333333332  C 12.618489583333334 9.333333333333332  12.5361328125 9.364583333333332  12.4716796875 9.427083333333332  C 12.4072265625 9.489583333333332  12.375 9.569444444444443  12.375 9.666666666666668  L 12.375 10.333333333333332  C 12.375 10.430555555555554  12.4072265625 10.510416666666668  12.4716796875 10.572916666666668  C 12.5361328125 10.635416666666668  12.618489583333334 10.666666666666668  12.71875 10.666666666666668  L 18.90625 10.666666666666668  C 19.006510416666668 10.666666666666668  19.0888671875 10.635416666666668  19.1533203125 10.572916666666668  Z M 19.13720703125 7.890625  C 19.21240234375 7.817708333333334  19.25 7.729166666666666  19.25 7.625  L 19.25 7.041666666666666  C 19.25 6.9375  19.21240234375 6.848958333333334  19.13720703125 6.776041666666666  C 19.06201171875 6.703125  18.970703125 6.666666666666666  18.86328125 6.666666666666666  L 12.76171875 6.666666666666666  C 12.654296875 6.666666666666666  12.56298828125 6.703125  12.48779296875 6.776041666666666  C 12.41259765625 6.848958333333334  12.375 6.9375  12.375 7.041666666666666  L 12.375 7.625  C 12.375 7.729166666666666  12.41259765625 7.817708333333334  12.48779296875 7.890625  C 12.56298828125 7.963541666666666  12.654296875 8  12.76171875 8  L 18.86328125 8  C 18.970703125 8  19.06201171875 7.963541666666666  19.13720703125 7.890625  Z M 19.1533203125 5.239583333333334  C 19.2177734375 5.177083333333334  19.25 5.097222222222221  19.25 5  L 19.25 4.333333333333334  C 19.25 4.236111111111109  19.2177734375 4.15625  19.1533203125 4.09375  C 19.0888671875 4.03125  19.006510416666668 4  18.90625 4  L 12.71875 4  C 12.618489583333334 4  12.5361328125 4.03125  12.4716796875 4.09375  C 12.4072265625 4.15625  12.375 4.236111111111109  12.375 4.333333333333334  L 12.375 5  C 12.375 5.097222222222221  12.4072265625 5.177083333333334  12.4716796875 5.239583333333334  C 12.5361328125 5.302083333333334  12.618489583333334 5.333333333333334  12.71875 5.333333333333334  L 18.90625 5.333333333333334  C 19.006510416666668 5.333333333333334  19.0888671875 5.302083333333334  19.1533203125 5.239583333333334  Z M 21.4951171875 0.4895833333333339  C 21.831705729166668 0.8159722222222214  22 1.208333333333334  22 1.666666666666666  L 22 14.333333333333334  C 22 14.791666666666666  21.831705729166668 15.184027777777779  21.4951171875 15.510416666666666  C 21.158528645833336 15.836805555555555  20.75390625 16  20.28125 16  L 16.5 16  L 16.5 15  C 16.5 14.902777777777779  16.4677734375 14.822916666666666  16.4033203125 14.760416666666666  C 16.3388671875 14.697916666666666  16.256510416666668 14.666666666666666  16.15625 14.666666666666666  L 15.46875 14.666666666666666  C 15.368489583333334 14.666666666666666  15.2861328125 14.697916666666666  15.2216796875 14.760416666666666  C 15.1572265625 14.822916666666666  15.125 14.902777777777779  15.125 15  L 15.125 16  L 6.875 16  L 6.875 15  C 6.875 14.902777777777779  6.8427734375 14.822916666666666  6.7783203125 14.760416666666666  C 6.7138671875 14.697916666666666  6.631510416666667 14.666666666666666  6.53125 14.666666666666666  L 5.84375 14.666666666666666  C 5.743489583333334 14.666666666666666  5.6611328125 14.697916666666666  5.5966796875 14.760416666666666  C 5.5322265625 14.822916666666666  5.5 14.902777777777779  5.5 15  L 5.5 16  L 1.71875 16  C 1.24609375 16  0.8414713541666667 15.836805555555555  0.5048828125 15.510416666666666  C 0.16829427083333331 15.184027777777779  0 14.791666666666666  0 14.333333333333334  L 0 1.666666666666666  C 0 1.208333333333334  0.16829427083333331 0.8159722222222214  0.5048828125 0.4895833333333339  C 0.8414713541666667 0.16319444444444287  1.24609375 0  1.71875 0  L 20.28125 0  C 20.75390625 0  21.158528645833336 0.16319444444444287  21.4951171875 0.4895833333333339  Z " fill-rule="nonzero" fill="#f0c27b" stroke="none" transform="matrix(1 0 0 1 28 16 )" />
  </g>
</svg>