<?xml version="1.0" standalone="no"?><!DOCTYPE svg PUBLIC "-//W3C//DTD SVG 1.1//EN" "http://www.w3.org/Graphics/SVG/1.1/DTD/svg11.dtd"><svg t="1701523990336" class="icon" viewBox="0 0 1024 1024" version="1.1" xmlns="http://www.w3.org/2000/svg" p-id="24959" xmlns:xlink="http://www.w3.org/1999/xlink" width="48" height="48"><path d="M519.918981 611.007746c-11.978978 11.723979-23.645957 23.673957-35.539936 35.482936-5.57899 5.57899-6.654988 11.610979-3.595994 19.029966 9.967982 24.014957 6.682988 40.184927-11.469979 58.394894-64.510883 64.509883-128.935767 128.991767-193.361651 193.444651-20.955962 20.928962-48.197913 21.040962-69.040875 0.283999-34.152938-34.038939-68.191877-68.163877-102.288815-102.315815-20.360963-20.417963-20.190964-47.971913 0.339999-68.503876a632881.222611 632881.222611 0 0 1 193.87065-193.92765c18.095967-18.095967 33.954939-21.408961 57.713896-11.440979 7.617986 3.199994 13.989975 2.208996 19.794964-3.708994 11.411979-11.525979 23.021958-22.853959 34.377938-34.435937 8.580984-8.750984 8.241985-16.59497-0.820999-25.062955-45.819917-42.732923-115.399792-42.336924-160.34171 2.151996-72.09987 71.278871-143.77474 143.010742-215.110611 215.110611-45.819917 46.216917-45.875917 116.728789-0.480999 162.975706 42.931922 43.666921 86.202844 86.938843 129.869765 129.784766 46.386916 45.594918 116.730789 45.763917 162.975706 0.056999 72.07187-71.278871 143.519741-143.235741 215.167611-215.054611 22.37096-22.427959 33.27294-49.92491 33.812939-81.585853-0.595999-30.753944-11.01698-57.543896-32.368942-79.887855-7.586986-7.985986-15.714972-8.381985-23.502957-0.791999M993.893124 167.222548c-44.54592-45.875917-89.770838-90.987836-135.308755-135.816755C836.723408 9.826832 810.215456-1.897147 780.112511 0.25385c-36.189935-0.056-60.063891 9.345983-84.135848 33.332939-71.391871 71.305871-142.924742 142.442743-213.948614 214.090614-44.48792 44.771919-45.309918 113.841794-2.746995 160.34071 8.891984 9.628983 16.82097 9.854982 26.223953 0.538999 11.12898-11.07298 22.08796-22.34396 33.415939-33.35994 6.202989-6.031989 7.079987-12.628977 3.822993-20.417963-9.570983-22.881959-6.200989-39.588928 11.29998-57.174897 64.792883-64.765883 129.586766-129.615766 194.351649-194.409648 20.021964-19.993964 47.320915-20.757962 67.455878-0.991999 35.086937 34.520938 69.892874 69.268875 104.327812 104.411812 19.737964 20.105964 18.802966 47.546914-1.103998 67.455878-64.652883 64.594883-129.275766 129.247766-193.87065 193.87165-18.322967 18.321967-33.869939 21.634961-57.656896 11.780978-7.873986-3.256994-14.386974-2.208996-20.418963 3.935993-11.18598 11.412979-22.598959 22.570959-33.869939 33.926939-8.750984 8.862984-8.466985 16.59497 0.595999 25.062955 46.923915 43.779921 116.786789 41.911924 163.145705-4.417992 69.519874-69.525874 139.015749-139.189749 208.736623-208.599624 24.691955-24.665955 37.974931-53.380904 37.040933-89.034839-0.736999-28.487949-9.458983-53.351904-28.884948-73.373867" fill="#F59A23" p-id="24960"></path><path d="M728.629604 339.713236c-0.056-22.39996-15.434972-41.062926-37.408933-45.083918-17.812968-3.227994-32.057942 3.312994-44.545919 15.857971-91.327835 91.582835-182.85467 183.024669-274.324505 274.494504-21.153962 21.211962-42.506923 42.279924-63.490885 63.688885-13.451976 13.733975-17.160969 30.272945-10.732981 48.368913 6.145989 17.273969 19.029966 27.185951 37.182933 29.678946 17.274969 2.377996 30.726944-4.927991 42.733923-16.991969 71.334871-71.616871 142.953742-143.123741 214.429613-214.656612 40.070928-40.070928 80.086855-80.255855 120.270782-120.270783 9.797982-9.740982 15.885971-20.983962 15.885972-35.085937" fill="#F59A23" p-id="24961"></path></svg>