<?xml version="1.0" encoding="utf-8"?>
<svg version="1.1" xmlns:xlink="http://www.w3.org/1999/xlink" width="23px" height="22px" xmlns="http://www.w3.org/2000/svg">
  <g transform="matrix(1 0 0 1 -211 -40 )">
    <path d="M 22.0877403846154 5.03125  C 22.6959134615385 5.71875  23 6.54166666666666  23 7.5  L 23 18.5  C 23 19.4583333333333  22.6959134615385 20.28125  22.0877403846154 20.96875  C 21.4795673076923 21.65625  20.7516025641026 22  19.9038461538462 22  L 3.09615384615385 22  C 2.24839743589744 22  1.52043269230769 21.65625  0.912259615384615 20.96875  C 0.304086538461538 20.28125  0 19.4583333333333  0 18.5  L 0 3.5  C 0 2.54166666666666  0.304086538461538 1.71875  0.912259615384615 1.03125  C 1.52043269230769 0.34375  2.24839743589744 0  3.09615384615385 0  L 7.51923076923077 0  C 8.36698717948718 0  9.09495192307692 0.34375  9.703125 1.03125  C 10.3112980769231 1.71875  10.6153846153846 2.54166666666666  10.6153846153846 3.5  L 10.6153846153846 4  L 19.9038461538462 4  C 20.7516025641026 4  21.4795673076923 4.34375  22.0877403846154 5.03125  Z " fill-rule="nonzero" fill="#ff697b" stroke="none" transform="matrix(1 0 0 1 211 40 )" />
  </g>
</svg>