<?xml version="1.0" encoding="utf-8"?>
<svg version="1.1" xmlns:xlink="http://www.w3.org/1999/xlink" width="22px" height="18px" xmlns="http://www.w3.org/2000/svg">
  <g transform="matrix(1 0 0 1 -28 -15 )">
    <path d="M 22 15.420786525632025  C 22 16.838764038360253  20.7686111015625 17.9887640427493  19.25 18  L 2.75 18  C 1.2313888984374999 17.9887640427493  0 16.838764038360253  0 15.420786525632023  L 0 2.5786516853932584  C 0 1.161235961639747  1.2313888984374999 0.011235957250702231  2.75 0.011235957250702231  L 6.6916666738281245 0.011235957250702052  C 7.753190928530501 0.015879177147692027  8.716795129236633 0.5823835185538442  9.166666673828125 1.4662921348314608  L 9.735 2.579213474367978  L 19.25 2.579213474367978  C 20.7686111015625 2.579213474367978  22 3.729213478757023  22 5.147752800210675  L 22 15.420786525632025  Z M 20.166666673828125 7.52752808769312  L 1.833333326171875 7.527528087693118  L 1.833333326171875 15.420786525632025  C 1.833333326171875 15.893258440133428  2.2439999999999998 16.276404505354634  2.75 16  L 19.25 16  C 19.756 16.276404485603937  20.166666673828125 15.893258420382725  20.166666673828125 15.420786525632025  L 20.166666673828125 7.52752808769312  Z M 1.833333326171875 2.579213474367979  L 1.833333326171875 6  L 20.166666673828125 6  L 20.166666673828125 5.147752800210675  C 20.166666673828125 4.674719096734551  19.756 4.291573031513344  19.250000000000004 4.291573031513344  L 9.166666673828125 4.291573031513344  C 8.812013835803844 4.2894924515407675  8.490578799491846 4.099279959852707  8.341666673828126 3.803370788711377  L 7.525833326171874 2.2112359484726136  C 7.375346008175086 1.9127838820910517  7.049495896493019 1.722297137676035  6.691666673828125 1.7235955143960686  L 2.75 1.7235955143960686  C 2.244 1.7235955143960686  1.833333326171875 2.106741579617277  1.833333326171875 2.579213474367979  Z " fill-rule="nonzero" fill="#787b81" stroke="none" transform="matrix(1 0 0 1 28 15 )" />
  </g>
</svg>