<?xml version="1.0" standalone="no"?><!DOCTYPE svg PUBLIC "-//W3C//DTD SVG 1.1//EN" "http://www.w3.org/Graphics/SVG/1.1/DTD/svg11.dtd"><svg t="1691846168825" class="icon" viewBox="0 0 1024 1024" version="1.1" xmlns="http://www.w3.org/2000/svg" p-id="6417" xmlns:xlink="http://www.w3.org/1999/xlink" width="200" height="200"><path d="M832 165H191.8c-51.9 0-94.1 41.6-94.1 92.6v424.3c0 51.1 42.2 92.6 94.1 92.6h301.3v68.6H304.8c-10.4 0-18.8 8.4-18.8 18.8s8.4 18.8 18.8 18.8H719c10.4 0 18.8-8.4 18.8-18.8s-8.4-18.8-18.8-18.8H530.7v-68.6H832c51.9 0 94.1-41.6 94.1-92.6V257.6c0-51-42.2-92.6-94.1-92.6z m-87.6 338.4c-10.4 0-18.8-8.4-18.8-18.8v-90.4l-153 155.4c-7.1 7.2-19.7 7.2-26.8 0L440.6 442.9 271.4 614.6c-3.7 3.7-8.5 5.6-13.4 5.6-4.8 0-9.5-1.8-13.2-5.4-7.4-7.3-7.5-19.2-0.2-26.6l182.6-185.4c7.1-7.2 19.7-7.2 26.8 0l105.1 106.8L699.5 367h-91.4c-10.4 0-18.8-8.4-18.8-18.8s8.4-18.8 18.8-18.8h136.2c10.4 0 18.8 8.4 18.8 18.8v136.4h0.1c0 10.4-8.4 18.8-18.8 18.8z" p-id="6418" fill="#555555"></path></svg>