<?xml version="1.0" standalone="no"?><!DOCTYPE svg PUBLIC "-//W3C//DTD SVG 1.1//EN" "http://www.w3.org/Graphics/SVG/1.1/DTD/svg11.dtd"><svg t="1692254709272" class="icon" viewBox="0 0 1024 1024" version="1.1" xmlns="http://www.w3.org/2000/svg" p-id="10817" xmlns:xlink="http://www.w3.org/1999/xlink" width="48" height="48"><path d="M829.44 790.528h-634.88c-43.008 0-79.872-34.816-79.872-79.872V313.344c0-45.056 34.816-79.872 79.872-79.872h636.928c43.008 0 79.872 34.816 79.872 79.872v399.36c-2.048 43.008-36.864 77.824-81.92 77.824z m-593.92-43.008h544.768L634.88 602.112l-8.192-8.192-86.016-86.016-305.152 239.616zM667.648 573.44l172.032 172.032c14.336-4.096 26.624-18.432 26.624-34.816v-145.408l-81.92-81.92-116.736 90.112zM194.56 276.48c-20.48 0-34.816 14.336-34.816 34.816v399.36c0 12.288 6.144 22.528 14.336 28.672L532.48 462.848c8.192-6.144 20.48-6.144 28.672 2.048l77.824 77.824 135.168-104.448c8.192-6.144 20.48-6.144 28.672 2.048l65.536 65.536v-192.512c0-20.48-16.384-34.816-34.816-34.816H194.56z m108.544 204.8c-45.056 0-81.92-36.864-81.92-81.92-2.048-20.48 6.144-40.96 20.48-55.296 14.336-16.384 36.864-24.576 61.44-24.576 45.056 0 81.92 36.864 81.92 81.92-2.048 43.008-38.912 79.872-81.92 79.872z m0-118.784c-12.288 0-22.528 4.096-28.672 12.288-6.144 6.144-10.24 14.336-8.192 24.576 0 22.528 16.384 38.912 36.864 38.912s36.864-16.384 36.864-36.864c0-22.528-16.384-38.912-36.864-38.912z" fill="#bfbfbf" p-id="10818"></path></svg>