<?xml version="1.0" standalone="no"?><!DOCTYPE svg PUBLIC "-//W3C//DTD SVG 1.1//EN" "http://www.w3.org/Graphics/SVG/1.1/DTD/svg11.dtd"><svg t="1700923762696" class="icon" viewBox="0 0 1024 1024" version="1.1" xmlns="http://www.w3.org/2000/svg" p-id="4024" xmlns:xlink="http://www.w3.org/1999/xlink" width="300" height="300"><path d="M512 0C229.22752 0 0 229.22752 0 512s229.22752 512 512 512 512-229.22752 512-512S794.77248 0 512 0z m244.39808 389.72928l-292.81792 296.00768c-0.11264 0.0768-0.2304 0.10752-0.30208 0.22016-0.10752 0.0768-0.14336 0.22016-0.22016 0.29696-2.33472 2.304-5.19168 3.65568-7.93088 5.19168-1.36192 0.73728-2.45248 1.90464-3.88096 2.48832a36.74112 36.74112 0 0 1-13.68064 2.66752 36.1472 36.1472 0 0 1-13.81888-2.7392c-1.4592-0.57856-2.59584-1.85856-4.0192-2.6368-2.70848-1.53088-5.56032-2.91328-7.86944-5.19168-0.07168-0.0768-0.10752-0.22016-0.1792-0.29696-0.07168-0.10752-0.22016-0.10752-0.29184-0.22016L267.3664 537.50784c-14.08-14.43328-13.75232-37.632 0.73216-51.70688a36.5568 36.5568 0 0 1 51.712 0.73216l118.02112 121.2672 266.60352-269.53216c14.18752-14.37184 37.376-14.51008 51.70688-0.29184a36.608 36.608 0 0 1 0.256 51.75296z" p-id="4025" fill="#ef9c19"></path></svg>