<?xml version="1.0" encoding="utf-8"?>
<svg version="1.1" xmlns:xlink="http://www.w3.org/1999/xlink" width="12px" height="11px" xmlns="http://www.w3.org/2000/svg">
  <g transform="matrix(1 0 0 1 -300 -116 )">
    <path d="M 7.105590062111801 5.246492985971944  C 7.188405797101451 5.319973279893119  7.229813664596273 5.404475617902471  7.229813664596273 5.5  C 7.229813664596273 5.595524382097528  7.188405797101451 5.68002672010688  7.105590062111801 5.753507014028056  L 1.3167701863354038 10.889779559118237  C 1.2339544513457559 10.963259853039412  1.1387163561076605 11  1.031055900621118 11  C 0.9233954451345757 11  0.8281573498964803 10.963259853039412  0.7453416149068323 10.889779559118237  L 0.12422360248447205 10.33867735470942  C 0.041407867494824044 10.265197060788243  0 10.180694722778892  0 10.085170340681362  C 0 9.989645958583834  0.041407867494824044 9.905143620574483  0.12422360248447205 9.831663326653306  L 5.0062111801242235 5.5  L 0.12422360248447205 1.1683366733466933  C 0.041407867494824044 1.0948563794255173  0 1.0103540414161651  0 0.9148296593186376  C 0 0.8193052772211075  0.041407867494824044 0.7348029392117555  0.12422360248447205 0.6613226452905806  L 0.7453416149068323 0.11022044088176364  C 0.8281573498964803 0.03674014696058747  0.9233954451345757 0  1.031055900621118 0  C 1.1387163561076605 0  1.2339544513457559 0.03674014696058747  1.3167701863354038 0.11022044088176364  L 7.105590062111801 5.246492985971944  Z M 11.875776397515528 5.246492985971944  C 11.958592132505178 5.319973279893119  12 5.404475617902471  12 5.5  C 12 5.595524382097528  11.958592132505178 5.68002672010688  11.875776397515528 5.753507014028056  L 6.086956521739131 10.889779559118237  C 6.004140786749483 10.963259853039412  5.908902691511387 11  5.801242236024844 11  C 5.693581780538302 11  5.5983436853002075 10.963259853039412  5.515527950310559 10.889779559118237  L 4.894409937888199 10.33867735470942  C 4.811594202898552 10.265197060788243  4.770186335403727 10.180694722778892  4.770186335403727 10.085170340681362  C 4.770186335403727 9.989645958583834  4.811594202898552 9.905143620574483  4.894409937888199 9.831663326653306  L 9.77639751552795 5.5  L 4.894409937888199 1.1683366733466933  C 4.811594202898552 1.0948563794255173  4.770186335403727 1.0103540414161651  4.770186335403727 0.9148296593186376  C 4.770186335403727 0.8193052772211075  4.811594202898552 0.7348029392117555  4.894409937888199 0.6613226452905806  L 5.515527950310559 0.11022044088176364  C 5.5983436853002075 0.03674014696058747  5.693581780538302 0  5.801242236024844 0  C 5.908902691511387 0  6.004140786749483 0.03674014696058747  6.086956521739131 0.11022044088176364  L 11.875776397515528 5.246492985971944  Z " fill-rule="nonzero" fill="#ec726c" stroke="none" fill-opacity="0.996078431372549" transform="matrix(1 0 0 1 300 116 )" />
  </g>
</svg>