<?xml version="1.0" encoding="utf-8"?>
<svg version="1.1" xmlns:xlink="http://www.w3.org/1999/xlink" width="49px" height="49px" xmlns="http://www.w3.org/2000/svg">
  <g transform="matrix(1 0 0 1 -194 -94 )">
    <path d="M 34.234375 43.107421875  C 37.2421875 41.5123697916667  39.7122395833333 39.34765625  41.64453125 36.61328125  C 41.2434895833333 33.7877604166667  40.4459635416667 31.4407552083333  39.251953125 29.572265625  C 38.0579427083333 27.7037760416667  36.3763020833333 26.6236979166667  34.20703125 26.33203125  C 32.9856770833333 27.6809895833333  31.5319010416667 28.7337239583333  29.845703125 29.490234375  C 28.1595052083333 30.2467447916667  26.3776041666667 30.625  24.5 30.625  C 22.6223958333333 30.625  20.8404947916667 30.2467447916667  19.154296875 29.490234375  C 17.4680989583333 28.7337239583333  16.0143229166667 27.6809895833333  14.79296875 26.33203125  C 12.6236979166667 26.6236979166667  10.9420572916667 27.7037760416667  9.748046875 29.572265625  C 8.55403645833333 31.4407552083333  7.75651041666667 33.7877604166667  7.35546875 36.61328125  C 9.28776041666667 39.34765625  11.7578125 41.5123697916667  14.765625 43.107421875  C 17.7734375 44.7024739583333  21.0182291666667 45.5  24.5 45.5  C 27.9817708333333 45.5  31.2265625 44.7024739583333  34.234375 43.107421875  Z M 31.923828125 24.923828125  C 33.974609375 22.873046875  35 20.3984375  35 17.5  C 35 14.6015625  33.974609375 12.126953125  31.923828125 10.076171875  C 29.873046875 8.025390625  27.3984375 7  24.5 7  C 21.6015625 7  19.126953125 8.025390625  17.076171875 10.076171875  C 15.025390625 12.126953125  14 14.6015625  14 17.5  C 14 20.3984375  15.025390625 22.873046875  17.076171875 24.923828125  C 19.126953125 26.974609375  21.6015625 28  24.5 28  C 27.3984375 28  29.873046875 26.974609375  31.923828125 24.923828125  Z M 47.05859375 14.984375  C 48.3528645833333 18.0104166666667  49 21.1822916666667  49 24.5  C 49 27.8177083333333  48.3528645833333 30.9850260416667  47.05859375 34.001953125  C 45.7643229166667 37.0188802083333  44.0279947916667 39.6256510416667  41.849609375 41.822265625  C 39.6712239583333 44.0188802083333  37.0690104166667 45.7643229166667  34.04296875 47.05859375  C 31.0169270833333 48.3528645833333  27.8359375 49  24.5 49  C 21.1822916666667 49  18.0104166666667 48.3528645833333  14.984375 47.05859375  C 11.9583333333333 45.7643229166667  9.3515625 44.0234375  7.1640625 41.8359375  C 4.9765625 39.6484375  3.23567708333333 37.0416666666667  1.94140625 34.015625  C 0.647135416666667 30.9895833333333  0 27.8177083333333  0 24.5  C 0 21.1822916666667  0.647135416666667 18.0104166666667  1.94140625 14.984375  C 3.23567708333333 11.9583333333333  4.9765625 9.3515625  7.1640625 7.1640625  C 9.3515625 4.9765625  11.9583333333333 3.23567708333333  14.984375 1.94140625  C 18.0104166666667 0.647135416666666  21.1822916666667 0  24.5 0  C 27.8177083333333 0  30.9895833333333 0.647135416666666  34.015625 1.94140625  C 37.0416666666667 3.23567708333333  39.6484375 4.9765625  41.8359375 7.1640625  C 44.0234375 9.3515625  45.7643229166667 11.9583333333333  47.05859375 14.984375  Z " fill-rule="nonzero" fill="#ffffff" stroke="none" fill-opacity="0.996078431372549" transform="matrix(1 0 0 1 194 94 )" />
  </g>
</svg>