<?xml version="1.0" standalone="no"?><!DOCTYPE svg PUBLIC "-//W3C//DTD SVG 1.1//EN" "http://www.w3.org/Graphics/SVG/1.1/DTD/svg11.dtd"><svg t="1693296624600" class="icon" viewBox="0 0 1024 1024" version="1.1" xmlns="http://www.w3.org/2000/svg" p-id="8135" xmlns:xlink="http://www.w3.org/1999/xlink" width="48" height="48"><path d="M304.017215 785.9264272C361.77399015 829.84765679 433.84278097 855.91827409 512 855.91827409c78.15721903 0 150.22600985-26.07151291 207.982785-69.99184689 0.01432993-1.01563366 0.02149489-2.03305854 0.0214949-3.05227467 0-115.74014229-93.12662015-209.56624206-208.0042799-209.56624208-114.87765974 0-208.0042799 93.82609977-208.0042799 209.56624208 0 1.01921613 0.00716497 2.03664104 0.0214949 3.05227467z m-53.0413332-49.98458041C266.99674139 644.87604943 328.81873803 569.75319268 411.60094135 535.59960033c-36.39801735-29.56443288-59.68415047-74.85685746-59.68415049-125.62868831C351.9185821 320.89607904 423.58971743 248.68757141 512 248.68757141s160.0814179 72.20850763 160.0814179 161.28334061c0 50.77183083-23.28523753 96.06425541-59.68415048 125.62868831 82.78309895 34.15269673 144.60599119 109.27644911 160.62685079 200.34314209C824.69515202 675.77137438 855.91827409 597.53175827 855.91827409 512c0-189.94050994-153.97776415-343.91827409-343.91827409-343.91827409S168.08172591 322.05949006 168.08172591 512c0 85.53175827 31.22312206 163.77137438 82.89415589 223.94274242zM512 913.23798644C290.40199208 913.23798644 110.76201356 733.59800792 110.76201356 512S290.40199208 110.76201356 512 110.76201356s401.23798644 179.63997849 401.23798644 401.23798644-179.63997849 401.23798644-401.23798644 401.23798644z m0-399.51212573c56.87548458 0 102.98292382-46.45225314 102.98292382-103.75494869 0-57.30269556-46.10654362-103.75584431-102.98292382-103.75584431-56.87548458 0-102.98292382 46.45314875-102.98292382 103.75584431 0 57.30179994 46.10654362 103.75494868 102.98292382 103.75494869z" p-id="8136" fill="#f0c27b"></path></svg>