<?xml version="1.0" encoding="utf-8"?>
<svg version="1.1" xmlns:xlink="http://www.w3.org/1999/xlink" width="21px" height="16px" xmlns="http://www.w3.org/2000/svg">
  <g transform="matrix(1 0 0 1 -635 -2376 )">
    <path d="M 5.69091796875 4.45563549160672  C 5.86181640625 4.29896083133493  5.947265625 4.08952837729816  5.947265625 3.8273381294964  C 5.947265625 3.56514788169464  5.86181640625 3.35411670663469  5.69091796875 3.19424460431655  C 5.52001953125 3.0343725019984  5.29443359375 2.95443645083933  5.01416015625 2.95443645083933  C 4.72021484375 2.95443645083933  4.46044921875 3.03597122302158  4.23486328125 3.19904076738609  C 4.00927734375 3.3621103117506  3.896484375 3.57154276578737  3.896484375 3.8273381294964  C 3.896484375 4.07673860911271  4.00927734375 4.28297362110312  4.23486328125 4.44604316546763  C 4.46044921875 4.60911270983213  4.72021484375 4.69064748201439  5.01416015625 4.69064748201439  C 5.29443359375 4.69064748201439  5.52001953125 4.6123101518785  5.69091796875 4.45563549160672  Z M 13.304443359375 9.17985611510791  C 13.478759765625 9.03916866506794  13.56591796875 8.87609912070344  13.56591796875 8.69064748201439  C 13.56591796875 8.51159072741806  13.478759765625 8.35171862509992  13.304443359375 8.21103117505995  C 13.130126953125 8.07034372501998  12.90625 8  12.6328125 8  C 12.4482421875 8  12.279052734375 8.07194244604317  12.125244140625 8.2158273381295  C 11.971435546875 8.35971223021583  11.89453125 8.51798561151079  11.89453125 8.69064748201439  C 11.89453125 8.86970423661071  11.971435546875 9.03117505995204  12.125244140625 9.17505995203837  C 12.279052734375 9.3189448441247  12.4482421875 9.39088729016787  12.6328125 9.39088729016787  C 12.90625 9.39088729016787  13.130126953125 9.32054356514788  13.304443359375 9.17985611510791  Z M 10.894775390625 4.45563549160672  C 11.062255859375 4.29896083133493  11.14599609375 4.08952837729816  11.14599609375 3.8273381294964  C 11.14599609375 3.56514788169464  11.062255859375 3.35411670663469  10.894775390625 3.19424460431655  C 10.727294921875 3.0343725019984  10.50341796875 2.95443645083933  10.22314453125 2.95443645083933  C 9.92919921875 2.95443645083933  9.66943359375 3.03597122302158  9.44384765625 3.19904076738609  C 9.21826171875 3.3621103117506  9.10546875 3.57154276578737  9.10546875 3.8273381294964  C 9.10546875 4.07673860911271  9.21826171875 4.28297362110312  9.44384765625 4.44604316546763  C 9.66943359375 4.60911270983213  9.92919921875 4.69064748201439  10.22314453125 4.69064748201439  C 10.50341796875 4.69064748201439  10.727294921875 4.6123101518785  10.894775390625 4.45563549160672  Z M 17.390625 9.17985611510791  C 17.568359375 9.03916866506794  17.6572265625 8.87609912070344  17.6572265625 8.69064748201439  C 17.6572265625 8.51159072741806  17.568359375 8.35171862509992  17.390625 8.21103117505995  C 17.212890625 8.07034372501998  16.99072265625 8  16.72412109375 8  C 16.53955078125 8  16.370361328125 8.07194244604317  16.216552734375 8.2158273381295  C 16.062744140625 8.35971223021583  15.98583984375 8.51798561151079  15.98583984375 8.69064748201439  C 15.98583984375 8.86970423661071  16.062744140625 9.03117505995204  16.216552734375 9.17505995203837  C 16.370361328125 9.3189448441247  16.53955078125 9.39088729016787  16.72412109375 9.39088729016787  C 16.99072265625 9.39088729016787  17.212890625 9.32054356514788  17.390625 9.17985611510791  Z M 13.530029296875 2.38369304556355  C 14.251220703125 3.12869704236611  14.7177734375 3.96163069544365  14.9296875 4.88249400479616  C 14.7177734375 4.85691446842526  14.478515625 4.84412470023981  14.2119140625 4.84412470023981  C 13.056640625 4.84412470023981  11.99365234375 5.09032773780975  11.02294921875 5.58273381294964  C 10.05224609375 6.07513988808953  9.288330078125 6.7418065547562  8.731201171875 7.58273381294964  C 8.174072265625 8.42366107114309  7.8955078125 9.34292565947242  7.8955078125 10.3405275779376  C 7.8955078125 10.8393285371703  7.97412109375 11.3253397282174  8.13134765625 11.7985611510791  C 7.89208984375 11.8177458033573  7.65966796875 11.8273381294964  7.43408203125 11.8273381294964  C 7.25634765625 11.8273381294964  7.08544921875 11.8225419664269  6.92138671875 11.8129496402878  C 6.75732421875 11.8033573141487  6.5693359375 11.7825739408473  6.357421875 11.7505995203837  C 6.1455078125 11.7186250999201  5.993408203125 11.6962430055955  5.901123046875 11.6834532374101  C 5.808837890625 11.6706634692246  5.62255859375 11.6370903277378  5.34228515625 11.5827338129496  C 5.06201171875 11.5283772981615  4.89111328125 11.4948041566747  4.82958984375 11.4820143884892  L 2.2353515625 12.7002398081535  L 2.9736328125 10.6091127098321  C 0.9912109375 9.31095123900879  0 7.74420463629097  0 5.90887290167866  C 0 4.82813749000799  0.333251953125 3.83373301358913  0.999755859375 2.92565947242206  C 1.666259765625 2.017585931255  2.568603515625 1.30295763389288  3.706787109375 0.781774580335732  C 4.844970703125 0.260591526778576  6.08740234375 0  7.43408203125 0  C 8.63720703125 0  9.773681640625 0.211031175059953  10.843505859375 0.633093525179856  C 11.913330078125 1.05515587529976  12.808837890625 1.63868904876099  13.530029296875 2.38369304556355  Z M 20.123291015625 7.73621103117506  C 20.707763671875 8.51318944844125  21 9.35571542765787  21 10.2637889688249  C 21 11.0119904076739  20.765869140625 11.726618705036  20.297607421875 12.4076738609113  C 19.829345703125 13.0887290167866  19.1953125 13.7074340527578  18.3955078125 14.2637889688249  L 18.95947265625 16  L 16.9189453125 14.9544364508393  C 15.8935546875 15.1910471622702  15.1484375 15.3093525179856  14.68359375 15.3093525179856  C 13.5283203125 15.3093525179856  12.46533203125 15.083932853717  11.49462890625 14.6330935251799  C 10.52392578125 14.1822541966427  9.760009765625 13.5699440447642  9.202880859375 12.7961630695444  C 8.645751953125 12.0223820943245  8.3671875 11.1782573940847  8.3671875 10.2637889688249  C 8.3671875 9.34932054356515  8.645751953125 8.50519584332534  9.202880859375 7.73141486810552  C 9.760009765625 6.95763389288569  10.52392578125 6.34532374100719  11.49462890625 5.89448441247002  C 12.46533203125 5.44364508393285  13.5283203125 5.21822541966427  14.68359375 5.21822541966427  C 15.7841796875 5.21822541966427  16.81982421875 5.44364508393285  17.79052734375 5.89448441247002  C 18.76123046875 6.34532374100719  19.538818359375 6.95923261390887  20.123291015625 7.73621103117506  Z " fill-rule="nonzero" fill="#7f7f7f" stroke="none" transform="matrix(1 0 0 1 635 2376 )" />
  </g>
</svg>